<svg xmlns="http://www.w3.org/2000/svg" xmlns:xlink="http://www.w3.org/1999/xlink" width="1080" zoomAndPan="magnify" viewBox="0 0 810 809.999993" height="1080" preserveAspectRatio="xMidYMid meet" version="1.0"><defs><clipPath id="afc8fbde4f"><path d="M 32.023438 25.242188 L 778.273438 25.242188 L 778.273438 771.492188 L 32.023438 771.492188 Z M 32.023438 25.242188 " clip-rule="nonzero"/></clipPath></defs><path fill="#000000" d="M 545.324219 341.160156 C 540.050781 314.015625 516.183594 293.796875 487.742188 293.796875 C 459.277344 293.796875 435.429688 314.015625 430.183594 341.160156 C 411.035156 349.367188 398.277344 368.238281 398.277344 389.605469 C 398.277344 418.660156 421.914062 442.300781 450.957031 442.300781 L 524.523438 442.300781 C 553.605469 442.300781 577.253906 418.660156 577.253906 389.605469 C 577.242188 368.238281 564.460938 349.367188 545.324219 341.160156 Z M 545.324219 341.160156 " fill-opacity="1" fill-rule="nonzero"/><path fill="#000000" d="M 532.949219 189.34375 C 513.148438 189.34375 497.636719 209.9375 497.636719 236.226562 C 497.636719 262.550781 513.148438 283.144531 532.949219 283.144531 C 552.738281 283.144531 568.226562 262.539062 568.226562 236.226562 C 568.226562 209.9375 552.738281 189.34375 532.949219 189.34375 Z M 532.949219 189.34375 " fill-opacity="1" fill-rule="nonzero"/><path fill="#000000" d="M 363.417969 264.464844 C 343.644531 264.464844 328.152344 285.082031 328.152344 311.394531 C 328.152344 337.703125 343.644531 358.308594 363.417969 358.308594 C 383.195312 358.308594 398.683594 337.703125 398.683594 311.394531 C 398.683594 285.082031 383.195312 264.464844 363.417969 264.464844 Z M 363.417969 264.464844 " fill-opacity="1" fill-rule="nonzero"/><path fill="#000000" d="M 612.027344 264.464844 C 592.253906 264.464844 576.761719 285.082031 576.761719 311.394531 C 576.761719 337.703125 592.253906 358.308594 612.027344 358.308594 C 631.816406 358.308594 647.304688 337.703125 647.304688 311.394531 C 647.304688 285.082031 631.816406 264.464844 612.027344 264.464844 Z M 612.027344 264.464844 " fill-opacity="1" fill-rule="nonzero"/><path fill="#000000" d="M 442.546875 189.34375 C 422.757812 189.34375 407.265625 209.9375 407.265625 236.226562 C 407.265625 262.550781 422.757812 283.144531 442.546875 283.144531 C 462.320312 283.144531 477.8125 262.539062 477.8125 236.226562 C 477.8125 209.9375 462.320312 189.34375 442.546875 189.34375 Z M 442.546875 189.34375 " fill-opacity="1" fill-rule="nonzero"/><g clip-path="url(#afc8fbde4f)"><path fill="#000000" d="M 693.164062 110.3125 C 638.292969 55.453125 565.351562 25.242188 487.742188 25.242188 C 410.132812 25.242188 337.191406 55.453125 282.292969 110.3125 C 188.976562 203.667969 172.738281 345.140625 233.199219 455.441406 L 194.824219 493.777344 L 190.457031 489.410156 C 181.875 480.730469 166.710938 480.78125 158.222656 489.359375 L 133.261719 514.324219 C 128.9375 518.609375 126.542969 524.339844 126.542969 530.453125 C 126.542969 536.554688 128.925781 542.273438 133.222656 546.535156 L 137.679688 550.988281 L 55.757812 632.894531 C 40.460938 648.167969 32.035156 668.546875 32.023438 690.308594 C 32.011719 712.070312 40.4375 732.480469 55.757812 747.78125 C 71.03125 763.066406 91.433594 771.492188 113.171875 771.492188 C 134.910156 771.492188 155.3125 763.066406 170.597656 747.78125 L 252.550781 665.835938 L 257.003906 670.304688 C 261.289062 674.585938 266.996094 676.957031 273.074219 676.957031 C 279.164062 676.957031 284.871094 674.585938 289.140625 670.304688 L 314.191406 645.253906 C 318.476562 640.96875 320.835938 635.265625 320.835938 629.1875 C 320.835938 623.109375 318.488281 617.402344 314.191406 613.117188 L 309.722656 608.652344 L 347.878906 570.496094 C 390.257812 593.835938 438.042969 606.304688 487.753906 606.304688 C 565.351562 606.304688 638.316406 576.082031 693.164062 521.199219 C 748.050781 466.335938 778.273438 393.382812 778.273438 315.773438 C 778.273438 238.164062 748.050781 165.199219 693.164062 110.3125 Z M 273.0625 652.34375 L 151.183594 530.453125 L 174.316406 507.308594 L 296.207031 629.199219 Z M 292.691406 591.644531 L 211.84375 510.796875 L 245.847656 476.820312 C 245.871094 476.796875 245.894531 476.785156 245.921875 476.757812 C 256.367188 492.453125 268.453125 507.367188 282.28125 521.195312 C 296.015625 534.929688 310.867188 547.113281 326.660156 557.667969 Z M 487.730469 538.109375 C 365.117188 538.109375 265.371094 438.363281 265.371094 315.75 C 265.371094 193.136719 365.128906 93.402344 487.730469 93.402344 C 610.332031 93.402344 710.074219 193.148438 710.074219 315.761719 C 710.074219 438.375 610.332031 538.109375 487.730469 538.109375 Z M 487.730469 538.109375 " fill-opacity="1" fill-rule="nonzero"/></g></svg>
